<mxfile host="app.diagrams.net" modified="2023-05-15T19:29:13.014Z" agent="Mozilla/5.0 (X11; Linux x86_64) AppleWebKit/537.36 (KHTML, like Gecko) Chrome/110.0.0.0 Safari/537.36" etag="jVUsdQqLb32qwas5URc6" version="21.3.0" type="device">
  <diagram name="Страница 1" id="FyajZ0hZRzI8oGWzyBr3">
    <mxGraphModel dx="978" dy="591" grid="1" gridSize="10" guides="1" tooltips="1" connect="1" arrows="1" fold="1" page="1" pageScale="1" pageWidth="550" pageHeight="350" math="0" shadow="0">
      <root>
        <mxCell id="0" />
        <mxCell id="1" parent="0" />
        <mxCell id="CyNogIWoJ9N-2lo___xp-1" value="1" style="rounded=0;whiteSpace=wrap;html=1;fontFamily=Times New Roman;fontSize=16;fillColor=#CCCCCC;" vertex="1" parent="1">
          <mxGeometry x="35" y="70" width="80" height="80" as="geometry" />
        </mxCell>
        <mxCell id="CyNogIWoJ9N-2lo___xp-2" value="2" style="rounded=0;whiteSpace=wrap;html=1;fontFamily=Times New Roman;fontSize=16;fillColor=#CCCCCC;" vertex="1" parent="1">
          <mxGeometry x="115" y="70" width="80" height="80" as="geometry" />
        </mxCell>
        <mxCell id="CyNogIWoJ9N-2lo___xp-3" value="3" style="rounded=0;whiteSpace=wrap;html=1;fontFamily=Times New Roman;fontSize=16;fillColor=#CCCCCC;" vertex="1" parent="1">
          <mxGeometry x="195" y="70" width="80" height="80" as="geometry" />
        </mxCell>
        <mxCell id="CyNogIWoJ9N-2lo___xp-4" value="4" style="rounded=0;whiteSpace=wrap;html=1;fontFamily=Times New Roman;fontSize=16;fillColor=#CCCCCC;" vertex="1" parent="1">
          <mxGeometry x="275" y="70" width="80" height="80" as="geometry" />
        </mxCell>
        <mxCell id="CyNogIWoJ9N-2lo___xp-5" value="5" style="rounded=0;whiteSpace=wrap;html=1;fontFamily=Times New Roman;fontSize=16;fillColor=#CCCCCC;" vertex="1" parent="1">
          <mxGeometry x="355" y="70" width="80" height="80" as="geometry" />
        </mxCell>
        <mxCell id="CyNogIWoJ9N-2lo___xp-11" value="" style="rounded=0;whiteSpace=wrap;html=1;fontFamily=Times New Roman;fontSize=16;" vertex="1" parent="1">
          <mxGeometry x="35" y="240" width="480" height="80" as="geometry" />
        </mxCell>
        <mxCell id="CyNogIWoJ9N-2lo___xp-12" value="1" style="rounded=0;whiteSpace=wrap;html=1;fontFamily=Times New Roman;fontSize=16;fillColor=#CCCCCC;fontColor=#333333;strokeColor=#666666;" vertex="1" parent="1">
          <mxGeometry x="35" y="240" width="80" height="80" as="geometry" />
        </mxCell>
        <mxCell id="CyNogIWoJ9N-2lo___xp-13" value="2" style="rounded=0;whiteSpace=wrap;html=1;fontFamily=Times New Roman;fontSize=16;fillColor=#f5f5f5;fontColor=#333333;strokeColor=#666666;" vertex="1" parent="1">
          <mxGeometry x="115" y="240" width="30" height="80" as="geometry" />
        </mxCell>
        <mxCell id="CyNogIWoJ9N-2lo___xp-14" value="3" style="rounded=0;whiteSpace=wrap;html=1;fontFamily=Times New Roman;fontSize=16;fillColor=#f5f5f5;fontColor=#333333;strokeColor=#666666;" vertex="1" parent="1">
          <mxGeometry x="145" y="240" width="50" height="80" as="geometry" />
        </mxCell>
        <mxCell id="CyNogIWoJ9N-2lo___xp-15" value="4" style="rounded=0;whiteSpace=wrap;html=1;fontFamily=Times New Roman;fontSize=16;fillColor=#f5f5f5;fontColor=#333333;strokeColor=#666666;" vertex="1" parent="1">
          <mxGeometry x="195" y="240" width="30" height="80" as="geometry" />
        </mxCell>
        <mxCell id="CyNogIWoJ9N-2lo___xp-16" value="6" style="rounded=0;whiteSpace=wrap;html=1;fontFamily=Times New Roman;fontSize=16;fillColor=#CCCCCC;" vertex="1" parent="1">
          <mxGeometry x="275" y="240" width="80" height="80" as="geometry" />
        </mxCell>
        <mxCell id="CyNogIWoJ9N-2lo___xp-17" value="Используются страницы 1-6" style="text;html=1;strokeColor=none;fillColor=none;align=center;verticalAlign=middle;whiteSpace=wrap;rounded=0;fontFamily=Times New Roman;fontSize=16;" vertex="1" parent="1">
          <mxGeometry x="35" y="30" width="215" height="30" as="geometry" />
        </mxCell>
        <mxCell id="CyNogIWoJ9N-2lo___xp-19" value="Используются страницы 1 и 6" style="text;html=1;strokeColor=none;fillColor=none;align=center;verticalAlign=middle;whiteSpace=wrap;rounded=0;fontFamily=Times New Roman;fontSize=16;" vertex="1" parent="1">
          <mxGeometry x="35" y="200" width="220" height="30" as="geometry" />
        </mxCell>
        <mxCell id="CyNogIWoJ9N-2lo___xp-20" value="6" style="rounded=0;whiteSpace=wrap;html=1;fontFamily=Times New Roman;fontSize=16;fillColor=#CCCCCC;" vertex="1" parent="1">
          <mxGeometry x="435" y="70" width="80" height="80" as="geometry" />
        </mxCell>
        <mxCell id="CyNogIWoJ9N-2lo___xp-21" value="5" style="rounded=0;whiteSpace=wrap;html=1;fontFamily=Times New Roman;fontSize=16;fillColor=#f5f5f5;fontColor=#333333;strokeColor=#666666;" vertex="1" parent="1">
          <mxGeometry x="225" y="240" width="50" height="80" as="geometry" />
        </mxCell>
        <mxCell id="CyNogIWoJ9N-2lo___xp-22" value="" style="endArrow=classic;html=1;rounded=0;" edge="1" parent="1">
          <mxGeometry width="50" height="50" relative="1" as="geometry">
            <mxPoint x="275" y="170" as="sourcePoint" />
            <mxPoint x="275" y="210" as="targetPoint" />
          </mxGeometry>
        </mxCell>
      </root>
    </mxGraphModel>
  </diagram>
</mxfile>
